<svg width="400" height="159" viewBox="0 0 400 159" fill="none" xmlns="http://www.w3.org/2000/svg">
<path d="M68 22H110.864C111.616 22 112.373 22.1048 113.042 22.4483C114.486 23.1894 116.451 24.6546 117.57 26.9488C117.9 27.625 118 28.3836 118 29.1359V66.2689C118 67.0866 117.921 67.9124 117.568 68.6496C117.022 69.7874 115.998 71.263 114.34 72.4492C113.202 73.2633 111.777 73.5 110.378 73.5H56.5C55.9478 73.5 55.5 73.9477 55.5 74.5V92.0438C55.5 94.1312 54.3353 96.186 52.2696 95.8856V95.8856C51.5125 95.7755 50.7567 95.1861 50.288 94.5814L2.04441 32.3472C1.35315 31.4555 0.863355 30.4366 0.806793 29.3098C0.774752 28.6714 0.766263 27.926 0.804732 27.1905C0.863183 26.0729 1.33576 25.0141 2.12652 24.2221C2.88187 23.4657 3.51735 23.0564 4.2171 22.7271C5.36825 22.1855 6.65367 22 7.92586 22H68Z" fill="#353774"/>
<path d="M77 0H124.599C125.529 0 126.466 0.106113 127.297 0.52181C128.022 0.884121 128.852 1.41242 129.59 2.12044C130.711 3.19507 131 4.80823 131 6.36068V44.9023C131 45.6319 130.941 46.3689 130.652 47.0389C130.047 48.4418 128.726 50.3368 126.368 51.4711C125.491 51.893 124.506 52 123.532 52H36.4022C34.2542 52 32.2251 51.0138 30.898 49.3248L1.49577 11.9037C0.526751 10.6704 0 9.14741 0 7.57896V6.11943C0 4.73745 0.359749 3.33699 1.33908 2.36191C1.87918 1.82417 2.51588 1.3125 3.2757 0.853393C4.36456 0.195468 5.65363 0 6.92582 0H77Z" fill="#5C61ED"/>
<path fill-rule="evenodd" clip-rule="evenodd" d="M118 52H36.4023C34.2542 52 32.2251 51.0138 30.898 49.3248L9.42859 22H68H110.864C111.616 22 112.373 22.1048 113.042 22.4483C114.486 23.1894 116.451 24.6546 117.57 26.9488C117.9 27.625 118 28.3836 118 29.1359V52Z" fill="#25272E"/>
<circle cx="69.5" cy="37.5" r="4" fill="#E8E8E9"/>
<circle cx="81.5" cy="37.5" r="4" fill="#E8E8E9"/>
<circle cx="93.5" cy="37.5" r="4" fill="#E8E8E9"/>
<path d="M104.468 140.18L98.708 132.436C97.0013 132.777 95.3373 132.948 93.716 132.948C89.492 132.948 85.6093 131.967 82.068 130.004C78.5693 128.041 75.7747 125.311 73.684 121.812C71.636 118.271 70.612 114.303 70.612 109.908C70.612 105.513 71.636 101.567 73.684 98.068C75.7747 94.5693 78.5693 91.8387 82.068 89.876C85.6093 87.9133 89.492 86.932 93.716 86.932C97.94 86.932 101.801 87.9133 105.3 89.876C108.841 91.8387 111.615 94.5693 113.62 98.068C115.668 101.567 116.692 105.513 116.692 109.908C116.692 113.748 115.903 117.268 114.324 120.468C112.788 123.625 110.633 126.249 107.86 128.34L117.716 140.18H104.468ZM81.812 109.908C81.812 113.876 82.8787 117.055 85.012 119.444C87.188 121.791 90.0893 122.964 93.716 122.964C97.3 122.964 100.159 121.769 102.292 119.38C104.468 116.991 105.556 113.833 105.556 109.908C105.556 105.94 104.468 102.783 102.292 100.436C100.159 98.0467 97.3 96.852 93.716 96.852C90.0893 96.852 87.188 98.0253 85.012 100.372C82.8787 102.719 81.812 105.897 81.812 109.908ZM158.17 96.788V132.5H147.226V127.636C146.116 129.215 144.602 130.495 142.682 131.476C140.804 132.415 138.714 132.884 136.41 132.884C133.679 132.884 131.268 132.287 129.178 131.092C127.087 129.855 125.466 128.084 124.314 125.78C123.162 123.476 122.586 120.767 122.586 117.652V96.788H133.466V116.18C133.466 118.569 134.084 120.425 135.322 121.748C136.559 123.071 138.223 123.732 140.314 123.732C142.447 123.732 144.132 123.071 145.37 121.748C146.607 120.425 147.226 118.569 147.226 116.18V96.788H158.17ZM171.535 93.076C169.615 93.076 168.036 92.5213 166.799 91.412C165.604 90.26 165.007 88.852 165.007 87.188C165.007 85.4813 165.604 84.0733 166.799 82.964C168.036 81.812 169.615 81.236 171.535 81.236C173.412 81.236 174.948 81.812 176.143 82.964C177.38 84.0733 177.999 85.4813 177.999 87.188C177.999 88.852 177.38 90.26 176.143 91.412C174.948 92.5213 173.412 93.076 171.535 93.076ZM176.975 96.788V132.5H166.031V96.788H176.975ZM182.73 114.644C182.73 110.932 183.476 107.689 184.97 104.916C186.506 102.143 188.618 100.009 191.306 98.516C194.036 97.0227 197.151 96.276 200.65 96.276C205.13 96.276 208.863 97.4493 211.85 99.796C214.879 102.143 216.863 105.449 217.802 109.716H206.154C205.172 106.985 203.274 105.62 200.458 105.62C198.452 105.62 196.852 106.409 195.658 107.988C194.463 109.524 193.866 111.743 193.866 114.644C193.866 117.545 194.463 119.785 195.658 121.364C196.852 122.9 198.452 123.668 200.458 123.668C203.274 123.668 205.172 122.303 206.154 119.572H217.802C216.863 123.753 214.879 127.039 211.85 129.428C208.82 131.817 205.087 133.012 200.65 133.012C197.151 133.012 194.036 132.265 191.306 130.772C188.618 129.279 186.506 127.145 184.97 124.372C183.476 121.599 182.73 118.356 182.73 114.644ZM245.48 132.5L234.6 117.524V132.5H223.656V85.14H234.6V111.316L245.416 96.788H258.92L244.072 114.708L259.048 132.5H245.48ZM295.538 87.572V96.34H283.634V132.5H272.69V96.34H260.786V87.572H295.538ZM298.855 114.58C298.855 110.911 299.537 107.689 300.903 104.916C302.311 102.143 304.209 100.009 306.599 98.516C308.988 97.0227 311.655 96.276 314.599 96.276C317.116 96.276 319.313 96.788 321.191 97.812C323.111 98.836 324.583 100.18 325.607 101.844V96.788H336.551V132.5H325.607V127.444C324.54 129.108 323.047 130.452 321.127 131.476C319.249 132.5 317.052 133.012 314.535 133.012C311.633 133.012 308.988 132.265 306.599 130.772C304.209 129.236 302.311 127.081 300.903 124.308C299.537 121.492 298.855 118.249 298.855 114.58ZM325.607 114.644C325.607 111.913 324.839 109.759 323.303 108.18C321.809 106.601 319.975 105.812 317.799 105.812C315.623 105.812 313.767 106.601 312.231 108.18C310.737 109.716 309.991 111.849 309.991 114.58C309.991 117.311 310.737 119.487 312.231 121.108C313.767 122.687 315.623 123.476 317.799 123.476C319.975 123.476 321.809 122.687 323.303 121.108C324.839 119.529 325.607 117.375 325.607 114.644ZM355.412 85.14V132.5H344.468V85.14H355.412ZM385.167 132.5L374.287 117.524V132.5H363.343V85.14H374.287V111.316L385.103 96.788H398.607L383.759 114.708L398.735 132.5H385.167Z" fill="#E8E8E9"/>
</svg>
