<?xml version="1.0" standalone="no"?>
<!DOCTYPE svg PUBLIC "-//W3C//DTD SVG 20010904//EN"
 "http://www.w3.org/TR/2001/REC-SVG-20010904/DTD/svg10.dtd">
<svg version="1.0" xmlns="http://www.w3.org/2000/svg"
 width="1048.000000pt" height="1048.000000pt" viewBox="0 0 1048.000000 1048.000000"
 preserveAspectRatio="xMidYMid meet">
<metadata>
Created by potrace 1.14, written by Peter Selinger 2001-2017
</metadata>
<g transform="translate(0.000000,1048.000000) scale(0.100000,-0.100000)"
fill="#000000" stroke="none">
<path d="M439 9075 c-3 -2 -14 -6 -25 -8 -62 -12 -139 -41 -154 -58 -3 -3 -15
-12 -28 -18 -55 -29 -152 -124 -180 -176 -41 -78 -51 -139 -48 -299 3 -201 25
-267 141 -421 16 -22 32 -42 35 -45 3 -3 21 -25 40 -50 19 -25 40 -52 47 -60
7 -8 35 -44 63 -80 28 -36 56 -72 63 -80 7 -8 28 -35 47 -60 45 -57 62 -79 75
-94 6 -6 26 -32 45 -58 18 -27 37 -48 42 -48 4 0 8 -5 8 -10 0 -6 29 -46 65
-90 36 -44 65 -86 65 -95 0 -9 -4 -14 -9 -11 -21 14 -212 4 -282 -13 -188 -48
-350 -193 -376 -336 -2 -11 -5 -63 -7 -116 -6 -183 17 -254 136 -407 84 -108
91 -117 210 -271 54 -69 101 -130 106 -136 4 -5 23 -30 42 -55 19 -25 40 -48
45 -52 6 -5 6 -8 1 -8 -6 0 -3 -6 5 -12 9 -7 40 -44 70 -83 30 -38 57 -71 61
-73 5 -2 8 -10 8 -18 0 -8 4 -14 9 -14 4 0 21 -19 37 -42 16 -24 37 -52 47
-63 21 -23 194 -246 217 -278 8 -12 65 -85 125 -163 61 -77 121 -156 135 -174
14 -18 30 -38 35 -44 6 -6 34 -42 62 -81 29 -38 58 -77 65 -85 7 -8 32 -39 55
-70 57 -74 53 -69 98 -125 22 -28 43 -51 47 -53 5 -2 8 -8 8 -13 0 -5 6 -17
14 -26 63 -77 106 -132 106 -136 0 -3 11 -18 24 -33 45 -53 156 -194 156 -199
0 -5 15 -23 54 -68 10 -12 44 -56 75 -97 31 -41 58 -77 61 -80 7 -6 80 -100
190 -245 47 -60 95 -121 107 -135 13 -14 23 -28 23 -31 0 -3 10 -17 21 -30 12
-13 33 -40 48 -59 14 -19 28 -37 31 -40 4 -3 21 -26 40 -52 18 -27 37 -48 42
-48 4 0 8 -4 8 -10 0 -5 9 -20 19 -32 63 -76 111 -139 111 -147 0 -5 3 -11 8
-13 4 -1 23 -23 42 -48 18 -25 40 -52 47 -60 15 -17 127 -162 158 -205 11 -15
25 -32 30 -39 36 -40 125 -156 125 -162 0 -4 11 -17 26 -30 14 -13 21 -24 17
-24 -4 0 -3 -4 3 -8 10 -7 26 -27 180 -227 38 -49 79 -101 91 -115 13 -14 23
-28 23 -31 0 -3 10 -17 23 -31 12 -14 29 -35 37 -48 8 -12 23 -32 34 -43 10
-12 43 -56 74 -97 31 -41 59 -77 63 -80 3 -3 31 -39 62 -80 74 -97 99 -129
115 -146 7 -8 11 -14 9 -14 -14 0 95 -106 130 -127 76 -44 178 -27 241 41 35
38 73 130 77 186 2 28 6 54 8 57 3 3 2 15 -3 28 -5 13 -7 25 -4 28 4 3 5 137
3 272 -1 43 -1 751 0 765 0 8 0 33 0 55 0 22 0 47 0 55 2 219 3 225 20 247 25
30 61 36 191 32 8 0 49 0 90 0 41 0 82 0 90 0 8 -1 42 0 75 0 33 0 69 0 80 0
31 0 318 0 335 0 149 2 223 0 231 -4 5 -4 9 -3 9 2 0 4 57 7 127 6 71 -2 180
-2 243 -2 186 0 253 -2 262 -7 4 -3 8 -2 8 3 0 4 57 7 127 6 71 -2 180 -2 243
-2 186 0 253 -2 262 -7 4 -3 8 -2 8 3 0 4 57 7 127 6 71 -2 180 -2 243 -2 186
0 253 -2 262 -7 4 -3 8 -2 8 3 0 4 21 7 47 6 27 -1 113 -2 193 -2 80 0 163 -1
185 -2 22 -1 47 -1 55 -1 8 1 62 1 120 1 58 -1 112 -1 120 0 113 2 223 0 231
-4 5 -4 9 -3 9 2 0 4 21 7 47 6 83 -3 355 -2 418 2 114 7 194 39 284 112 51
42 130 124 131 136 0 4 9 16 19 26 38 38 90 163 96 231 4 35 8 66 10 69 2 2 0
11 -5 20 -5 10 -5 23 0 31 5 8 5 21 -1 31 -6 11 -5 20 1 24 5 3 6 15 1 28 -5
13 -5 30 0 39 6 11 5 19 -1 23 -6 4 -7 13 -1 24 5 9 6 23 2 29 -4 7 -4 35 -1
62 4 28 3 50 -1 50 -4 0 -4 14 1 30 5 17 6 30 2 30 -8 0 -7 79 1 87 3 3 2 16
-3 29 -6 14 -6 26 0 29 6 4 7 13 1 24 -6 10 -6 23 -1 31 5 8 5 19 0 25 -5 6
-5 17 0 25 5 8 5 21 0 30 -5 9 -5 22 0 30 5 8 4 22 -1 32 -6 12 -6 18 0 18 7
0 7 9 1 25 -6 15 -6 27 0 30 6 3 6 15 0 30 -5 14 -5 27 0 30 5 3 5 18 0 34 -4
15 -4 34 0 42 5 7 5 20 0 29 -5 9 -5 22 0 30 5 8 5 21 1 29 -4 9 -5 30 -1 46
4 25 10 30 33 30 15 -1 27 2 27 5 0 6 22 5 95 -4 11 -1 35 1 53 5 17 4 32 3
32 -1 0 -4 15 -4 34 0 18 4 41 3 50 -2 10 -6 16 -5 16 2 0 6 4 9 9 6 9 -6 40
-7 131 -5 43 1 118 14 150 27 8 3 17 6 20 7 26 9 86 39 90 44 3 4 21 18 40 31
68 46 197 190 183 204 -4 3 -2 6 4 6 13 0 50 83 63 140 6 28 9 638 9 1660 0
1776 3 1695 -62 1806 -45 76 -172 172 -287 216 -29 11 -875 13 -4861 15 -2654
2 -4828 1 -4830 -2z"/>
</g>
</svg>
